<svg width="115" height="22" viewBox="0 0 115 22" fill="none" xmlns="http://www.w3.org/2000/svg">
<path d="M5.706 4.756H8.01L9.468 8.986L10.944 4.756H13.23L11.034 10.57L12.654 14.638L16.272 4.72H18.972L13.86 17.5H11.718L9.468 12.136L7.236 17.5H5.094L0 4.72H2.664L6.3 14.638L7.884 10.57L5.706 4.756ZM29.6952 15.322V17.5H20.8212V4.72H29.5332V6.898H23.3052V9.976H28.6872V11.992H23.3052V15.322H29.6952ZM42.4678 14.206C42.4678 14.926 42.2818 15.532 41.9098 16.024C41.5378 16.504 41.0338 16.87 40.3978 17.122C39.7738 17.374 39.0898 17.5 38.3458 17.5H32.1718V4.72H39.0118C39.6118 4.72 40.1278 4.882 40.5598 5.206C41.0038 5.518 41.3398 5.926 41.5678 6.43C41.8078 6.922 41.9278 7.438 41.9278 7.978C41.9278 8.59 41.7718 9.172 41.4598 9.724C41.1478 10.276 40.6918 10.684 40.0918 10.948C40.8238 11.164 41.3998 11.554 41.8198 12.118C42.2518 12.682 42.4678 13.378 42.4678 14.206ZM39.9658 13.738C39.9658 13.414 39.8998 13.126 39.7678 12.874C39.6358 12.61 39.4558 12.406 39.2278 12.262C39.0118 12.106 38.7598 12.028 38.4718 12.028H34.6558V15.394H38.3458C38.6458 15.394 38.9158 15.322 39.1558 15.178C39.4078 15.022 39.6058 14.818 39.7498 14.566C39.8938 14.314 39.9658 14.038 39.9658 13.738ZM34.6558 6.844V10.066H37.9678C38.2438 10.066 38.4958 10 38.7238 9.868C38.9518 9.736 39.1318 9.55 39.2638 9.31C39.4078 9.07 39.4798 8.782 39.4798 8.446C39.4798 8.122 39.4138 7.84 39.2818 7.6C39.1618 7.36 38.9938 7.174 38.7778 7.042C38.5738 6.91 38.3398 6.844 38.0758 6.844H34.6558Z" fill="#4D5AE5"/>
<path d="M52.946 8.068C52.862 7.984 52.706 7.87 52.478 7.726C52.262 7.582 51.992 7.444 51.668 7.312C51.356 7.18 51.014 7.066 50.642 6.97C50.27 6.862 49.892 6.808 49.508 6.808C48.836 6.808 48.326 6.934 47.978 7.186C47.642 7.438 47.474 7.792 47.474 8.248C47.474 8.596 47.582 8.872 47.798 9.076C48.014 9.28 48.338 9.454 48.77 9.598C49.202 9.742 49.742 9.898 50.39 10.066C51.23 10.27 51.956 10.522 52.568 10.822C53.192 11.11 53.666 11.494 53.99 11.974C54.326 12.442 54.494 13.066 54.494 13.846C54.494 14.53 54.368 15.118 54.116 15.61C53.864 16.09 53.516 16.48 53.072 16.78C52.628 17.08 52.124 17.302 51.56 17.446C50.996 17.578 50.396 17.644 49.76 17.644C49.124 17.644 48.488 17.578 47.852 17.446C47.216 17.314 46.604 17.128 46.016 16.888C45.428 16.636 44.888 16.336 44.396 15.988L45.494 13.846C45.602 13.954 45.794 14.098 46.07 14.278C46.346 14.446 46.682 14.62 47.078 14.8C47.474 14.968 47.906 15.112 48.374 15.232C48.842 15.352 49.316 15.412 49.796 15.412C50.468 15.412 50.978 15.298 51.326 15.07C51.674 14.842 51.848 14.518 51.848 14.098C51.848 13.714 51.71 13.414 51.434 13.198C51.158 12.982 50.774 12.796 50.282 12.64C49.79 12.472 49.208 12.292 48.536 12.1C47.732 11.872 47.06 11.62 46.52 11.344C45.98 11.056 45.578 10.696 45.314 10.264C45.05 9.832 44.918 9.292 44.918 8.644C44.918 7.768 45.122 7.036 45.53 6.448C45.95 5.848 46.514 5.398 47.222 5.098C47.93 4.786 48.716 4.63 49.58 4.63C50.18 4.63 50.744 4.696 51.272 4.828C51.812 4.96 52.316 5.134 52.784 5.35C53.252 5.566 53.672 5.8 54.044 6.052L52.946 8.068ZM66.4691 6.898H62.3831V17.5H59.9171V6.898H55.8311V4.72H66.4691V6.898ZM74.0136 17.59C72.9936 17.59 72.1236 17.422 71.4036 17.086C70.6956 16.738 70.1196 16.264 69.6756 15.664C69.2436 15.064 68.9256 14.386 68.7216 13.63C68.5176 12.862 68.4156 12.064 68.4156 11.236V4.72H70.8996V11.236C70.8996 11.764 70.9476 12.28 71.0436 12.784C71.1516 13.276 71.3256 13.72 71.5656 14.116C71.8056 14.512 72.1236 14.824 72.5196 15.052C72.9156 15.28 73.4076 15.394 73.9956 15.394C74.5956 15.394 75.0936 15.28 75.4896 15.052C75.8976 14.812 76.2156 14.494 76.4436 14.098C76.6836 13.702 76.8576 13.258 76.9656 12.766C77.0736 12.262 77.1276 11.752 77.1276 11.236V4.72H79.5936V11.236C79.5936 12.112 79.4856 12.934 79.2696 13.702C79.0656 14.47 78.7356 15.148 78.2796 15.736C77.8356 16.312 77.2596 16.768 76.5516 17.104C75.8436 17.428 74.9976 17.59 74.0136 17.59ZM82.6356 17.5V4.72H87.2796C88.6716 4.72 89.8356 5.008 90.7716 5.584C91.7076 6.148 92.4096 6.916 92.8776 7.888C93.3456 8.848 93.5796 9.916 93.5796 11.092C93.5796 12.388 93.3216 13.516 92.8056 14.476C92.2896 15.436 91.5576 16.18 90.6096 16.708C89.6736 17.236 88.5636 17.5 87.2796 17.5H82.6356ZM91.0776 11.092C91.0776 10.264 90.9276 9.538 90.6276 8.914C90.3276 8.278 89.8956 7.786 89.3316 7.438C88.7676 7.078 88.0836 6.898 87.2796 6.898H85.1196V15.322H87.2796C88.0956 15.322 88.7856 15.142 89.3496 14.782C89.9136 14.41 90.3396 13.906 90.6276 13.27C90.9276 12.622 91.0776 11.896 91.0776 11.092ZM96.0604 17.5V4.72H98.5444V17.5H96.0604ZM107.205 17.59C106.269 17.59 105.417 17.41 104.649 17.05C103.893 16.69 103.239 16.204 102.687 15.592C102.147 14.968 101.727 14.272 101.427 13.504C101.127 12.724 100.977 11.926 100.977 11.11C100.977 10.258 101.133 9.448 101.445 8.68C101.769 7.9 102.207 7.21 102.759 6.61C103.323 5.998 103.983 5.518 104.739 5.17C105.507 4.81 106.347 4.63 107.259 4.63C108.183 4.63 109.023 4.816 109.779 5.188C110.547 5.56 111.201 6.058 111.741 6.682C112.281 7.306 112.701 8.002 113.001 8.77C113.301 9.538 113.451 10.33 113.451 11.146C113.451 11.986 113.295 12.796 112.983 13.576C112.671 14.344 112.233 15.034 111.669 15.646C111.117 16.246 110.457 16.72 109.689 17.068C108.933 17.416 108.105 17.59 107.205 17.59ZM103.497 11.11C103.497 11.662 103.581 12.196 103.749 12.712C103.917 13.228 104.157 13.69 104.469 14.098C104.793 14.494 105.183 14.812 105.639 15.052C106.107 15.28 106.635 15.394 107.223 15.394C107.823 15.394 108.357 15.274 108.825 15.034C109.293 14.782 109.683 14.452 109.995 14.044C110.307 13.624 110.541 13.162 110.697 12.658C110.865 12.142 110.949 11.626 110.949 11.11C110.949 10.558 110.859 10.03 110.679 9.526C110.511 9.01 110.265 8.554 109.941 8.158C109.629 7.75 109.239 7.432 108.771 7.204C108.315 6.964 107.799 6.844 107.223 6.844C106.611 6.844 106.071 6.97 105.603 7.222C105.147 7.462 104.763 7.786 104.451 8.194C104.139 8.602 103.899 9.058 103.731 9.562C103.575 10.066 103.497 10.582 103.497 11.11Z" fill="#2E2F42"/>
</svg>
